<svg data-v-423bf9ae="" xmlns="http://www.w3.org/2000/svg" viewBox="0 0 344.7434694230051 60" class="font"><!----><!----><!----><g data-v-423bf9ae="" id="ccae95b9-63b9-4ec7-964c-e309b9debfaa" fill="black" transform="matrix(4.460966289706529,0,0,4.460966289706529,-4.996277470523893,-13.695165973178831)"><path d="M10.02 3.92L7.50 3.92L7.50 7.87L3.64 7.87L3.64 3.92L1.12 3.92L1.12 13.58L3.64 13.58L3.64 9.83L7.50 9.83L7.50 13.58L10.02 13.58ZM15.92 13.58L18.38 13.58C18.27 12.75 18.24 12.25 18.24 11.69L18.24 9.59C18.24 9.13 18.23 8.69 18.20 8.32C18.09 6.96 17.28 5.91 14.91 5.91C13.02 5.91 11.47 6.90 11.45 8.65L13.83 8.64C13.87 7.99 14.21 7.62 14.80 7.62C15.34 7.62 15.65 7.95 15.69 8.33C15.72 8.57 15.72 8.72 15.72 8.88L15.72 8.99L15.25 8.99C12.71 8.99 11.20 9.97 11.20 11.56C11.20 13.01 12.36 13.78 13.59 13.78C14.28 13.78 14.91 13.61 15.44 13.27L15.75 12.49ZM14.63 12.07C14.13 12.07 13.78 11.82 13.78 11.37C13.78 10.63 14.59 10.33 15.72 10.42L15.72 10.91C15.72 11.69 15.13 12.07 14.63 12.07ZM22.78 7.73L24.43 7.73L24.43 6.16L22.78 6.16L22.78 4.23L20.26 4.23L20.26 6.16L19.07 6.16L19.07 7.73L20.26 7.73L20.26 10.85C20.26 11.27 20.26 11.62 20.29 12.05C20.37 13.20 20.93 13.78 22.79 13.78C23.32 13.78 23.79 13.73 24.28 13.65L24.28 12.08C23.09 12.14 22.85 11.97 22.79 11.21C22.78 11.02 22.78 10.74 22.78 10.49ZM32.59 9.74C32.59 7.81 31.33 5.91 28.84 5.91C26.35 5.91 24.85 7.69 24.85 9.87C24.85 12.50 26.56 13.78 28.70 13.78C30.62 13.78 32.02 12.82 32.45 11.13L29.97 11.13C29.88 11.70 29.44 12.07 28.73 12.07C28.01 12.07 27.47 11.72 27.34 10.47L32.55 10.47C32.58 10.22 32.59 9.97 32.59 9.74ZM28.71 7.62C29.39 7.62 29.82 8.05 29.96 8.93L27.43 8.93C27.59 8.01 28.06 7.62 28.71 7.62ZM41.19 6.10L38.43 6.10L36.90 11.58L35.36 6.10L32.56 6.10L35.66 13.92L35.56 14.13C35.32 14.66 34.92 14.85 34.33 14.85C34.08 14.85 33.85 14.85 33.64 14.83L33.64 16.45C34.01 16.51 34.30 16.52 34.71 16.52C36.48 16.52 37.30 15.95 38.23 13.58ZM47.24 8.47L51.41 3.92L48.40 3.92L44.72 8.19L44.72 3.92L42.20 3.92L42.20 13.58L44.72 13.58L44.72 10.61L45.40 9.86L48.13 13.58L51.28 13.58ZM59.75 7.94C59.56 6.64 58.65 5.91 57.11 5.91C56.42 5.91 55.89 6.06 55.43 6.34L54.75 7.27L54.75 3.22L52.23 3.22L52.23 13.58L54.75 13.58L54.75 10.05C54.75 8.36 55.30 7.62 56.07 7.62C56.83 7.62 57.22 8.04 57.27 8.75C57.30 9.13 57.30 9.53 57.30 9.77L57.30 13.58L59.82 13.58L59.82 9.35C59.82 8.75 59.81 8.32 59.75 7.94ZM64.85 5.91C62.40 5.91 60.83 7.43 60.83 9.84C60.83 12.24 62.40 13.78 64.85 13.78C67.30 13.78 68.87 12.24 68.87 9.84C68.87 7.43 67.30 5.91 64.85 5.91ZM64.85 12.07C63.95 12.07 63.41 11.33 63.41 9.84C63.41 8.34 63.95 7.62 64.85 7.62C65.74 7.62 66.29 8.34 66.29 9.84C66.29 11.33 65.74 12.07 64.85 12.07ZM74.48 5.91C74.00 5.91 73.42 6.12 73.01 6.57L72.48 7.62L72.48 6.10L69.96 6.10L69.96 13.58L72.48 13.58L72.48 10.84C72.48 8.58 73.16 7.88 75.05 8.01L75.05 5.95C74.87 5.92 74.72 5.91 74.48 5.91ZM77.10 3.07C76.31 3.07 75.80 3.54 75.80 4.30C75.80 5.05 76.31 5.53 77.10 5.53C77.88 5.53 78.40 5.05 78.40 4.30C78.40 3.54 77.88 3.07 77.10 3.07ZM78.36 13.58L78.36 6.10L75.84 6.10L75.84 13.58Z"></path></g><!----><!----></svg>