<svg data-v-423bf9ae="" xmlns="http://www.w3.org/2000/svg" viewBox="0 0 455 90" class="iconLeftSlogan"><!----><!----><!----><g data-v-423bf9ae="" id="4542de2f-0382-4d5a-9fe1-ef4975e17201" fill="#7DE38D" transform="matrix(4.460966289706529,0,0,4.460966289706529,105.00372252947611,-13.695165973178831)"><path d="M10.02 3.92L7.50 3.92L7.50 7.87L3.64 7.87L3.64 3.92L1.12 3.92L1.12 13.58L3.64 13.58L3.64 9.83L7.50 9.83L7.50 13.58L10.02 13.58ZM15.92 13.58L18.38 13.58C18.27 12.75 18.24 12.25 18.24 11.69L18.24 9.59C18.24 9.13 18.23 8.69 18.20 8.32C18.09 6.96 17.28 5.91 14.91 5.91C13.02 5.91 11.47 6.90 11.45 8.65L13.83 8.64C13.87 7.99 14.21 7.62 14.80 7.62C15.34 7.62 15.65 7.95 15.69 8.33C15.72 8.57 15.72 8.72 15.72 8.88L15.72 8.99L15.25 8.99C12.71 8.99 11.20 9.97 11.20 11.56C11.20 13.01 12.36 13.78 13.59 13.78C14.28 13.78 14.91 13.61 15.44 13.27L15.75 12.49ZM14.63 12.07C14.13 12.07 13.78 11.82 13.78 11.37C13.78 10.63 14.59 10.33 15.72 10.42L15.72 10.91C15.72 11.69 15.13 12.07 14.63 12.07ZM22.78 7.73L24.43 7.73L24.43 6.16L22.78 6.16L22.78 4.23L20.26 4.23L20.26 6.16L19.07 6.16L19.07 7.73L20.26 7.73L20.26 10.85C20.26 11.27 20.26 11.62 20.29 12.05C20.37 13.20 20.93 13.78 22.79 13.78C23.32 13.78 23.79 13.73 24.28 13.65L24.28 12.08C23.09 12.14 22.85 11.97 22.79 11.21C22.78 11.02 22.78 10.74 22.78 10.49ZM32.59 9.74C32.59 7.81 31.33 5.91 28.84 5.91C26.35 5.91 24.85 7.69 24.85 9.87C24.85 12.50 26.56 13.78 28.70 13.78C30.62 13.78 32.02 12.82 32.45 11.13L29.97 11.13C29.88 11.70 29.44 12.07 28.73 12.07C28.01 12.07 27.47 11.72 27.34 10.47L32.55 10.47C32.58 10.22 32.59 9.97 32.59 9.74ZM28.71 7.62C29.39 7.62 29.82 8.05 29.96 8.93L27.43 8.93C27.59 8.01 28.06 7.62 28.71 7.62ZM41.19 6.10L38.43 6.10L36.90 11.58L35.36 6.10L32.56 6.10L35.66 13.92L35.56 14.13C35.32 14.66 34.92 14.85 34.33 14.85C34.08 14.85 33.85 14.85 33.64 14.83L33.64 16.45C34.01 16.51 34.30 16.52 34.71 16.52C36.48 16.52 37.30 15.95 38.23 13.58ZM47.24 8.47L51.41 3.92L48.40 3.92L44.72 8.19L44.72 3.92L42.20 3.92L42.20 13.58L44.72 13.58L44.72 10.61L45.40 9.86L48.13 13.58L51.28 13.58ZM59.75 7.94C59.56 6.64 58.65 5.91 57.11 5.91C56.42 5.91 55.89 6.06 55.43 6.34L54.75 7.27L54.75 3.22L52.23 3.22L52.23 13.58L54.75 13.58L54.75 10.05C54.75 8.36 55.30 7.62 56.07 7.62C56.83 7.62 57.22 8.04 57.27 8.75C57.30 9.13 57.30 9.53 57.30 9.77L57.30 13.58L59.82 13.58L59.82 9.35C59.82 8.75 59.81 8.32 59.75 7.94ZM64.85 5.91C62.40 5.91 60.83 7.43 60.83 9.84C60.83 12.24 62.40 13.78 64.85 13.78C67.30 13.78 68.87 12.24 68.87 9.84C68.87 7.43 67.30 5.91 64.85 5.91ZM64.85 12.07C63.95 12.07 63.41 11.33 63.41 9.84C63.41 8.34 63.95 7.62 64.85 7.62C65.74 7.62 66.29 8.34 66.29 9.84C66.29 11.33 65.74 12.07 64.85 12.07ZM74.48 5.91C74.00 5.91 73.42 6.12 73.01 6.57L72.48 7.62L72.48 6.10L69.96 6.10L69.96 13.58L72.48 13.58L72.48 10.84C72.48 8.58 73.16 7.88 75.05 8.01L75.05 5.95C74.87 5.92 74.72 5.91 74.48 5.91ZM77.10 3.07C76.31 3.07 75.80 3.54 75.80 4.30C75.80 5.05 76.31 5.53 77.10 5.53C77.88 5.53 78.40 5.05 78.40 4.30C78.40 3.54 77.88 3.07 77.10 3.07ZM78.36 13.58L78.36 6.10L75.84 6.10L75.84 13.58Z"></path></g><!----><g data-v-423bf9ae="" id="09d8a6d8-55ca-4e3c-a03a-8b1d7ad37891" transform="matrix(2.8125,0,0,2.8125,0,0)" stroke="none" fill="#7DE38D"><path d="M0 16l16 16 16-16L16 0 0 16zm16 13.172L2.828 16 16 2.828 29.172 16 16 29.172z"></path><path d="M14.751 9.991v4.76h-2.262v-4.76H9.991v12.018h2.498v-4.76h2.262v4.76h2.498v-4.76h2.262v4.76h2.498V9.991h-2.498v4.76h-2.262v-4.76z"></path></g><!----><g data-v-423bf9ae="" id="e2321d71-3bae-4e3b-a33d-395024cd61ef" fill="#7DE38D" transform="matrix(1.013764958558402,0,0,1.013764958558402,109.84793823400247,54.24181448797249)"><path d="M8.41 5.88L7.42 15.68L5.28 15.68L4.37 6.38L4.20 6.38L3.29 15.68L1.15 15.68L0.15 5.88L1.22 5.88L2.16 15.18L2.32 15.18L3.21 5.88L5.36 5.88L6.24 15.18L6.41 15.18L7.35 5.88L8.41 5.88ZM16.88 15.68L16.88 5.88L22.82 5.88L22.82 6.97L18.06 6.97L18.06 10.22L22.74 10.22L22.74 11.31L18.06 11.31L18.06 14.59L22.90 14.59L22.90 15.68L16.88 15.68ZM47.50 15.68L47.50 14.59L48.34 14.59L48.34 6.97L47.50 6.97L47.50 5.88L51.46 5.88L51.46 5.88Q52.16 5.88 52.70 6.08L52.70 6.08L52.70 6.08Q53.24 6.27 53.61 6.61L53.61 6.61L53.61 6.61Q53.98 6.94 54.17 7.41L54.17 7.41L54.17 7.41Q54.36 7.88 54.36 8.43L54.36 8.43L54.36 8.60L54.36 8.60Q54.36 9.00 54.24 9.34L54.24 9.34L54.24 9.34Q54.11 9.67 53.89 9.94L53.89 9.94L53.89 9.94Q53.66 10.21 53.36 10.39L53.36 10.39L53.36 10.39Q53.06 10.58 52.71 10.68L52.71 10.68L52.71 10.85L52.71 10.85Q53.41 11.05 53.89 11.60L53.89 11.60L53.89 11.60Q54.36 12.15 54.36 12.95L54.36 12.95L54.36 13.12L54.36 13.12Q54.36 13.66 54.17 14.13L54.17 14.13L54.17 14.13Q53.98 14.60 53.61 14.95L53.61 14.95L53.61 14.95Q53.24 15.29 52.70 15.48L52.70 15.48L52.70 15.48Q52.16 15.68 51.46 15.68L51.46 15.68L47.50 15.68ZM49.52 11.31L49.52 14.59L51.38 14.59L51.38 14.59Q52.21 14.59 52.72 14.17L52.72 14.17L52.72 14.17Q53.24 13.76 53.24 13.03L53.24 13.03L53.24 12.95L53.24 12.95Q53.24 12.19 52.75 11.75L52.75 11.75L52.75 11.75Q52.26 11.31 51.42 11.31L51.42 11.31L49.52 11.31ZM49.52 6.97L49.52 10.22L51.42 10.22L51.42 10.22Q52.26 10.22 52.75 9.79L52.75 9.79L52.75 9.79Q53.24 9.35 53.24 8.60L53.24 8.60L53.24 8.51L53.24 8.51Q53.24 7.80 52.72 7.38L52.72 7.38L52.72 7.38Q52.21 6.97 51.38 6.97L51.38 6.97L49.52 6.97ZM63.59 15.68L63.59 5.88L69.52 5.88L69.52 6.97L64.76 6.97L64.76 10.22L69.44 10.22L69.44 11.31L64.76 11.31L64.76 14.59L69.61 14.59L69.61 15.68L63.59 15.68ZM79.06 15.68L79.06 5.88L80.23 5.88L80.23 14.59L85.36 14.59L85.36 15.68L79.06 15.68ZM94.72 15.68L94.72 5.88L100.66 5.88L100.66 6.97L95.90 6.97L95.90 10.22L100.58 10.22L100.58 11.31L95.90 11.31L95.90 14.59L100.74 14.59L100.74 15.68L94.72 15.68ZM110.15 6.97L110.15 5.88L116.37 5.88L116.37 6.97L113.85 6.97L113.85 14.59L116.37 14.59L116.37 15.68L110.15 15.68L110.15 14.59L112.67 14.59L112.67 6.97L110.15 6.97ZM127.69 15.68L124.92 5.88L126.18 5.88L128.74 15.18L128.91 15.18L131.47 5.88L132.73 5.88L129.96 15.68L127.69 15.68ZM141.43 15.68L141.43 5.88L147.36 5.88L147.36 6.97L142.60 6.97L142.60 10.22L147.28 10.22L147.28 11.31L142.60 11.31L142.60 14.59L147.45 14.59L147.45 15.68L141.43 15.68ZM158.98 14.90L158.98 14.90L158.98 14.90Q158.98 14.49 159.27 14.20L159.27 14.20L159.27 14.20Q159.56 13.92 159.96 13.92L159.96 13.92L159.96 13.92Q160.37 13.92 160.66 14.20L160.66 14.20L160.66 14.20Q160.94 14.49 160.94 14.90L160.94 14.90L160.94 16.27L160.94 16.27Q160.94 16.74 160.64 17.05L160.64 17.05L160.64 17.05Q160.34 17.36 159.87 17.36L159.87 17.36L159.15 17.36L159.15 16.60L159.81 16.60L159.81 16.60Q160.19 16.60 160.19 16.18L160.19 16.18L160.19 15.83L160.19 15.83Q160.08 15.88 159.95 15.88L159.95 15.88L159.95 15.88Q159.56 15.88 159.27 15.59L159.27 15.59L159.27 15.59Q158.98 15.30 158.98 14.90ZM195.23 5.88L194.24 15.68L192.09 15.68L191.18 6.38L191.02 6.38L190.11 15.68L187.96 15.68L186.97 5.88L188.03 5.88L188.97 15.18L189.14 15.18L190.02 5.88L192.18 5.88L193.06 15.18L193.23 15.18L194.17 5.88L195.23 5.88ZM203.70 15.68L203.70 5.88L209.64 5.88L209.64 6.97L204.88 6.97L204.88 10.22L209.55 10.22L209.55 11.31L204.88 11.31L204.88 14.59L209.72 14.59L209.72 15.68L203.70 15.68ZM237.86 14.78L237.86 14.78L237.86 14.78Q238.46 14.78 238.89 14.58L238.89 14.58L238.89 14.58Q239.32 14.38 239.59 14.04L239.59 14.04L239.59 14.04Q239.86 13.69 240.00 13.25L240.00 13.25L240.00 13.25Q240.13 12.81 240.13 12.32L240.13 12.32L240.13 12.15L241.30 12.15L241.30 12.32L241.30 12.32Q241.30 13.06 241.08 13.71L241.08 13.71L241.08 13.71Q240.86 14.36 240.42 14.85L240.42 14.85L240.42 14.85Q239.99 15.33 239.34 15.60L239.34 15.60L239.34 15.60Q238.70 15.88 237.86 15.88L237.86 15.88L237.86 15.88Q236.24 15.88 235.33 14.85L235.33 14.85L235.33 14.85Q234.42 13.83 234.42 11.87L234.42 11.87L234.42 9.69L234.42 9.69Q234.42 7.78 235.33 6.73L235.33 6.73L235.33 6.73Q236.24 5.68 237.86 5.68L237.86 5.68L237.86 5.68Q238.70 5.68 239.34 5.96L239.34 5.96L239.34 5.96Q239.99 6.23 240.42 6.71L240.42 6.71L240.42 6.71Q240.86 7.20 241.08 7.85L241.08 7.85L241.08 7.85Q241.30 8.50 241.30 9.24L241.30 9.24L241.30 9.41L240.13 9.41L240.13 9.24L240.13 9.24Q240.11 8.76 239.98 8.32L239.98 8.32L239.98 8.32Q239.85 7.87 239.58 7.53L239.58 7.53L239.58 7.53Q239.30 7.18 238.88 6.98L238.88 6.98L238.88 6.98Q238.46 6.78 237.86 6.78L237.86 6.78L237.86 6.78Q236.73 6.78 236.16 7.60L236.16 7.60L236.16 7.60Q235.59 8.43 235.59 9.77L235.59 9.77L235.59 11.79L235.59 11.79Q235.59 13.23 236.16 14.01L236.16 14.01L236.16 14.01Q236.73 14.78 237.86 14.78ZM256.19 15.68L255.47 13.24L251.27 13.24L250.56 15.68L249.30 15.68L252.27 5.88L254.48 5.88L257.45 15.68L256.19 15.68ZM253.46 6.38L253.29 6.38L251.59 12.15L255.15 12.15L253.46 6.38ZM268.03 5.88L270.86 15.18L271.03 15.18L271.03 5.88L272.20 5.88L272.20 15.68L269.85 15.68L267.02 6.38L266.85 6.38L266.85 15.68L265.68 15.68L265.68 5.88L268.03 5.88Z"></path></g></svg>